<?xml version="1.0" standalone="no"?>
<svg
  width="600"
  height="600"
  viewBox="0 0 600 600"
  xmlns="http://www.w3.org/2000/svg"
>
  <g transform="translate(300,300)">
    <path d="M143.1,-178.4C178.2,-141.1,194.5,-89.1,207.3,-33.9C220.2,21.2,229.6,79.6,210.1,128.9C190.7,178.1,142.4,218.3,90,229.7C37.6,241.2,-18.8,224,-76.2,205C-133.6,186,-191.9,165.2,-228.5,122.1C-265,79,-279.7,13.6,-269.1,-47.6C-258.4,-108.7,-222.4,-165.4,-173.3,-200.3C-124.3,-235.1,-62.1,-248.1,-4.1,-243.2C54,-238.3,108,-215.7,143.1,-178.4Z" fill="#27c3c2" />
  </g>
</svg>
    